# xmcd
#
# Track frame offsets:
#       150
#       15153
#       29440
#       48663
#       66743
#       82263
#       98618
#       115720
#
# Disc length: 1743 seconds
#
# Revision: 1
# Processed by: cddbd v1.4PL0 Copyright (c) Steve Scherf et al.
# Submitted via: MusiCat 1.1
#
DISCID=6406cd08
DTITLE=Joël - Joël
DYEAR=1995
DGENRE=
TTITLE0=Later word ik wereldberoemd
TTITLE1=De hele zomer vrij
TTITLE2=Opstaan
TTITLE3=Een doodgewone kat
TTITLE4=De boekentasblues
TTITLE5=Een avondje uit
TTITLE6=Ik leef vandaag
TTITLE7=Kampioen van de buurt
EXTD=1995\nMercury\nPG899\n
EXTT0=
EXTT1=
EXTT2=
EXTT3=
EXTT4=
EXTT5=
EXTT6=
EXTT7=
PLAYORDER=
